<svg xmlns="http://www.w3.org/2000/svg" width="880" height="306" viewBox="0 0 880 306" role="img" aria-label="Time: Wall-clock time, lower is better. Ratios compare Pi-Bolt with Bun. Pi 1.0.0, medians.">
<style>text{font-family:-apple-system, BlinkMacSystemFont, 'Segoe UI', Helvetica, Arial, sans-serif;font-variant-numeric:tabular-nums}</style>
<text x="20" y="28" font-size="18" font-weight="600" fill="#ffffff">Time</text>
<text x="20" y="50" font-size="13" fill="#c3c2b7">Wall-clock time, lower is better. Ratios compare Pi-Bolt with Bun. Pi 1.0.0, medians.</text>
<text x="20" y="86" font-size="13" font-weight="600" fill="#ffffff">Launch to interactive (TUI)</text>
<text x="108" y="111" font-size="12" text-anchor="end" fill="#c3c2b7">Pi-Bolt</text>
<path d="M116,100 h45.11927733452412 a4,4 0 0 1 4,4 v6 a4,4 0 0 1 -4,4 h-45.11927733452412 z" fill="#3987e5"/>
<text x="171.11927733452413" y="111" font-size="12" fill="#ffffff">46 ms <tspan fill="#c3c2b7">1.4× faster</tspan></text>
<text x="108" y="135" font-size="12" text-anchor="end" fill="#c3c2b7">Bun 1.4.2</text>
<path d="M116,124 h65.53123078537523 a4,4 0 0 1 4,4 v6 a4,4 0 0 1 -4,4 h-65.53123078537523 z" fill="#d95926"/>
<text x="191.53123078537521" y="135" font-size="12" fill="#ffffff">65 ms</text>
<text x="108" y="159" font-size="12" text-anchor="end" fill="#c3c2b7">Node 26</text>
<path d="M116,148 h200.0 a4,4 0 0 1 4,4 v6 a4,4 0 0 1 -4,4 h-200.0 z" fill="#199e70"/>
<text x="326.0" y="159" font-size="12" fill="#ffffff">190 ms</text>
<line x1="116" y1="96" x2="116" y2="166" stroke="#3a3a37"/>
<text x="450" y="86" font-size="13" font-weight="600" fill="#ffffff">pi --version</text>
<text x="538" y="111" font-size="12" text-anchor="end" fill="#c3c2b7">Pi-Bolt</text>
<path d="M546,100 h21.137090104393145 a4,4 0 0 1 4,4 v6 a4,4 0 0 1 -4,4 h-21.137090104393145 z" fill="#3987e5"/>
<text x="577.1370901043931" y="111" font-size="12" fill="#ffffff">19 ms <tspan fill="#c3c2b7">1.7× faster</tspan></text>
<text x="538" y="135" font-size="12" text-anchor="end" fill="#c3c2b7">Bun 1.4.2</text>
<path d="M546,124 h38.970690971358245 a4,4 0 0 1 4,4 v6 a4,4 0 0 1 -4,4 h-38.970690971358245 z" fill="#d95926"/>
<text x="594.9706909713583" y="135" font-size="12" fill="#ffffff">32 ms</text>
<text x="538" y="159" font-size="12" text-anchor="end" fill="#c3c2b7">Node 26</text>
<path d="M546,148 h200.0 a4,4 0 0 1 4,4 v6 a4,4 0 0 1 -4,4 h-200.0 z" fill="#199e70"/>
<text x="756.0" y="159" font-size="12" fill="#ffffff">152 ms</text>
<line x1="546" y1="96" x2="546" y2="166" stroke="#3a3a37"/>
<text x="20" y="204" font-size="13" font-weight="600" fill="#ffffff">pi -p: one prompt, 4 tool calls</text>
<text x="108" y="229" font-size="12" text-anchor="end" fill="#c3c2b7">Pi-Bolt</text>
<path d="M116,218 h37.27494967864372 a4,4 0 0 1 4,4 v6 a4,4 0 0 1 -4,4 h-37.27494967864372 z" fill="#3987e5"/>
<text x="163.27494967864374" y="229" font-size="12" fill="#ffffff">46 ms <tspan fill="#c3c2b7">1.5× faster</tspan></text>
<text x="108" y="253" font-size="12" text-anchor="end" fill="#c3c2b7">Bun 1.4.2</text>
<path d="M116,242 h58.60654431820051 a4,4 0 0 1 4,4 v6 a4,4 0 0 1 -4,4 h-58.60654431820051 z" fill="#d95926"/>
<text x="184.60654431820052" y="253" font-size="12" fill="#ffffff">71 ms</text>
<text x="108" y="277" font-size="12" text-anchor="end" fill="#c3c2b7">Node 26</text>
<path d="M116,266 h200.0 a4,4 0 0 1 4,4 v6 a4,4 0 0 1 -4,4 h-200.0 z" fill="#199e70"/>
<text x="326.0" y="277" font-size="12" fill="#ffffff">230 ms</text>
<line x1="116" y1="214" x2="116" y2="284" stroke="#3a3a37"/>
<text x="450" y="204" font-size="13" font-weight="600" fill="#ffffff">Time per prompt, 4.2M-token session</text>
<text x="538" y="229" font-size="12" text-anchor="end" fill="#c3c2b7">Pi-Bolt</text>
<path d="M546,218 h124.45327102803739 a4,4 0 0 1 4,4 v6 a4,4 0 0 1 -4,4 h-124.45327102803739 z" fill="#3987e5"/>
<text x="680.4532710280374" y="229" font-size="12" fill="#ffffff">216 ms <tspan fill="#c3c2b7">1.3× faster</tspan></text>
<text x="538" y="253" font-size="12" text-anchor="end" fill="#c3c2b7">Bun 1.4.2</text>
<path d="M546,242 h162.82242990654206 a4,4 0 0 1 4,4 v6 a4,4 0 0 1 -4,4 h-162.82242990654206 z" fill="#d95926"/>
<text x="718.8224299065421" y="253" font-size="12" fill="#ffffff">280 ms</text>
<text x="538" y="277" font-size="12" text-anchor="end" fill="#c3c2b7">Node 26</text>
<path d="M546,266 h200.0 a4,4 0 0 1 4,4 v6 a4,4 0 0 1 -4,4 h-200.0 z" fill="#199e70"/>
<text x="756.0" y="277" font-size="12" fill="#ffffff">342 ms</text>
<line x1="546" y1="214" x2="546" y2="284" stroke="#3a3a37"/>
</svg>
