<svg xmlns="http://www.w3.org/2000/svg" width="880" height="378" viewBox="0 0 880 378" role="img" aria-label="Time: Wall-clock time, lower is better. Ratios compare Pi-Bolt with Bun. Pi 1.0.0, medians.">
<style>text{font-family:-apple-system, BlinkMacSystemFont, 'Segoe UI', 'Noto Sans', Helvetica, Arial, sans-serif}</style>
<text x="24" y="32" font-size="21" font-weight="650" fill="#f0f6fc">Time</text>
<text x="24" y="56" font-size="13.5" fill="#9198a1">Wall-clock time, lower is better. Ratios compare Pi-Bolt with Bun. Pi 1.0.0, medians.</text>
<text x="24" y="96" font-size="15" font-weight="600" fill="#f0f6fc">Launch to interactive (TUI)</text>
<text x="94" y="126.5" font-size="13.5" text-anchor="end" fill="#9198a1">Pi-Bolt</text>
<path d="M104,114 h34.3 a4,4 0 0 1 4,4 v8 a4,4 0 0 1 -4,4 h-34.3 z" fill="#3987e5"/>
<text x="150.3" y="126.5" font-size="13.5" font-weight="650" fill="#f0f6fc">31 ms</text>
<rect x="194.1" y="111.5" width="84.0" height="22" rx="11.0" fill="#1b2f4a"/><text x="201.1" y="126.5" font-size="12" font-weight="600" fill="#f0f6fc">2.1× faster</text>
<text x="94" y="156.5" font-size="13.5" text-anchor="end" fill="#9198a1">Bun 1.4.2</text>
<path d="M104,144 h74.7 a4,4 0 0 1 4,4 v8 a4,4 0 0 1 -4,4 h-74.7 z" fill="#6e7681"/>
<text x="190.7" y="156.5" font-size="13.5" font-weight="400" fill="#f0f6fc">63 ms</text>
<text x="94" y="186.5" font-size="13.5" text-anchor="end" fill="#9198a1">Node 26</text>
<path d="M104,174 h236.0 a4,4 0 0 1 4,4 v8 a4,4 0 0 1 -4,4 h-236.0 z" fill="#6e7681"/>
<text x="352.0" y="186.5" font-size="13.5" font-weight="400" fill="#f0f6fc">193 ms</text>
<line x1="104" y1="108" x2="104" y2="196" stroke="#3d444d"/>
<text x="452" y="96" font-size="15" font-weight="600" fill="#f0f6fc">pi --version</text>
<text x="522" y="126.5" font-size="13.5" text-anchor="end" fill="#9198a1">Pi-Bolt</text>
<path d="M532,114 h13.6 a4,4 0 0 1 4,4 v8 a4,4 0 0 1 -4,4 h-13.6 z" fill="#3987e5"/>
<text x="557.6" y="126.5" font-size="13.5" font-weight="650" fill="#f0f6fc">12 ms</text>
<rect x="601.4" y="111.5" width="84.0" height="22" rx="11.0" fill="#1b2f4a"/><text x="608.4" y="126.5" font-size="12" font-weight="600" fill="#f0f6fc">2.8× faster</text>
<text x="522" y="156.5" font-size="13.5" text-anchor="end" fill="#9198a1">Bun 1.4.2</text>
<path d="M532,144 h45.9 a4,4 0 0 1 4,4 v8 a4,4 0 0 1 -4,4 h-45.9 z" fill="#6e7681"/>
<text x="589.9" y="156.5" font-size="13.5" font-weight="400" fill="#f0f6fc">33 ms</text>
<text x="522" y="186.5" font-size="13.5" text-anchor="end" fill="#9198a1">Node 26</text>
<path d="M532,174 h236.0 a4,4 0 0 1 4,4 v8 a4,4 0 0 1 -4,4 h-236.0 z" fill="#6e7681"/>
<text x="780.0" y="186.5" font-size="13.5" font-weight="400" fill="#f0f6fc">157 ms</text>
<line x1="532" y1="108" x2="532" y2="196" stroke="#3d444d"/>
<text x="24" y="246" font-size="15" font-weight="600" fill="#f0f6fc">pi -p: one prompt, 4 tool calls</text>
<text x="94" y="276.5" font-size="13.5" text-anchor="end" fill="#9198a1">Pi-Bolt</text>
<path d="M104,264 h35.1 a4,4 0 0 1 4,4 v8 a4,4 0 0 1 -4,4 h-35.1 z" fill="#3987e5"/>
<text x="151.1" y="276.5" font-size="13.5" font-weight="650" fill="#f0f6fc">37 ms</text>
<rect x="194.9" y="261.5" width="84.0" height="22" rx="11.0" fill="#1b2f4a"/><text x="201.9" y="276.5" font-size="12" font-weight="600" fill="#f0f6fc">1.9× faster</text>
<text x="94" y="306.5" font-size="13.5" text-anchor="end" fill="#9198a1">Bun 1.4.2</text>
<path d="M104,294 h69.9 a4,4 0 0 1 4,4 v8 a4,4 0 0 1 -4,4 h-69.9 z" fill="#6e7681"/>
<text x="185.9" y="306.5" font-size="13.5" font-weight="400" fill="#f0f6fc">69 ms</text>
<text x="94" y="336.5" font-size="13.5" text-anchor="end" fill="#9198a1">Node 26</text>
<path d="M104,324 h236.0 a4,4 0 0 1 4,4 v8 a4,4 0 0 1 -4,4 h-236.0 z" fill="#6e7681"/>
<text x="352.0" y="336.5" font-size="13.5" font-weight="400" fill="#f0f6fc">225 ms</text>
<line x1="104" y1="258" x2="104" y2="346" stroke="#3d444d"/>
<text x="452" y="246" font-size="15" font-weight="600" fill="#f0f6fc">Time per prompt, 4.2M-token session</text>
<text x="522" y="276.5" font-size="13.5" text-anchor="end" fill="#9198a1">Pi-Bolt</text>
<path d="M532,264 h139.8 a4,4 0 0 1 4,4 v8 a4,4 0 0 1 -4,4 h-139.8 z" fill="#3987e5"/>
<text x="683.8" y="276.5" font-size="13.5" font-weight="650" fill="#f0f6fc">209 ms</text>
<rect x="734.7" y="261.5" width="84.0" height="22" rx="11.0" fill="#1b2f4a"/><text x="741.7" y="276.5" font-size="12" font-weight="600" fill="#f0f6fc">1.3× faster</text>
<text x="522" y="306.5" font-size="13.5" text-anchor="end" fill="#9198a1">Bun 1.4.2</text>
<path d="M532,294 h188.4 a4,4 0 0 1 4,4 v8 a4,4 0 0 1 -4,4 h-188.4 z" fill="#6e7681"/>
<text x="732.4" y="306.5" font-size="13.5" font-weight="400" fill="#f0f6fc">280 ms</text>
<text x="522" y="336.5" font-size="13.5" text-anchor="end" fill="#9198a1">Node 26</text>
<path d="M532,324 h236.0 a4,4 0 0 1 4,4 v8 a4,4 0 0 1 -4,4 h-236.0 z" fill="#6e7681"/>
<text x="780.0" y="336.5" font-size="13.5" font-weight="400" fill="#f0f6fc">349 ms</text>
<line x1="532" y1="258" x2="532" y2="346" stroke="#3d444d"/>
</svg>
