<svg xmlns="http://www.w3.org/2000/svg" width="880" height="378" viewBox="0 0 880 378" role="img" aria-label="Time: Wall-clock time, lower is better. Ratios compare Pi-Bolt with Bun. Pi 1.0.0, medians.">
<style>text{font-family:-apple-system, BlinkMacSystemFont, 'Segoe UI', 'Noto Sans', Helvetica, Arial, sans-serif}</style>
<text x="24" y="32" font-size="21" font-weight="650" fill="#1f2328">Time</text>
<text x="24" y="56" font-size="13.5" fill="#59636e">Wall-clock time, lower is better. Ratios compare Pi-Bolt with Bun. Pi 1.0.0, medians.</text>
<text x="24" y="96" font-size="15" font-weight="600" fill="#1f2328">Launch to interactive (TUI)</text>
<text x="94" y="126.5" font-size="13.5" text-anchor="end" fill="#59636e">Pi-Bolt</text>
<path d="M104,114 h31.4 a4,4 0 0 1 4,4 v8 a4,4 0 0 1 -4,4 h-31.4 z" fill="#2a78d6"/>
<text x="147.4" y="126.5" font-size="13.5" font-weight="650" fill="#1f2328">45 ms</text>
<rect x="191.2" y="111.5" width="84.0" height="22" rx="11.0" fill="#ddeaf9"/><text x="198.2" y="126.5" font-size="12" font-weight="600" fill="#1f2328">2.9× faster</text>
<text x="94" y="156.5" font-size="13.5" text-anchor="end" fill="#59636e">Bun 1.4.2</text>
<path d="M104,144 h97.3 a4,4 0 0 1 4,4 v8 a4,4 0 0 1 -4,4 h-97.3 z" fill="#848d97"/>
<text x="213.3" y="156.5" font-size="13.5" font-weight="400" fill="#1f2328">128 ms</text>
<text x="94" y="186.5" font-size="13.5" text-anchor="end" fill="#59636e">Node 22</text>
<path d="M104,174 h236.0 a4,4 0 0 1 4,4 v8 a4,4 0 0 1 -4,4 h-236.0 z" fill="#848d97"/>
<text x="352.0" y="186.5" font-size="13.5" font-weight="400" fill="#1f2328">303 ms</text>
<line x1="104" y1="108" x2="104" y2="196" stroke="#d1d9e0"/>
<text x="452" y="96" font-size="15" font-weight="600" fill="#1f2328">pi --version</text>
<text x="522" y="126.5" font-size="13.5" text-anchor="end" fill="#59636e">Pi-Bolt</text>
<path d="M532,114 h10.8 a4,4 0 0 1 4,4 v8 a4,4 0 0 1 -4,4 h-10.8 z" fill="#2a78d6"/>
<text x="554.8" y="126.5" font-size="13.5" font-weight="650" fill="#1f2328">14 ms</text>
<rect x="598.6" y="111.5" width="84.0" height="22" rx="11.0" fill="#ddeaf9"/><text x="605.6" y="126.5" font-size="12" font-weight="600" fill="#1f2328">5.8× faster</text>
<text x="522" y="156.5" font-size="13.5" text-anchor="end" fill="#59636e">Bun 1.4.2</text>
<path d="M532,144 h82.6 a4,4 0 0 1 4,4 v8 a4,4 0 0 1 -4,4 h-82.6 z" fill="#848d97"/>
<text x="626.6" y="156.5" font-size="13.5" font-weight="400" fill="#1f2328">82 ms</text>
<text x="522" y="186.5" font-size="13.5" text-anchor="end" fill="#59636e">Node 22</text>
<path d="M532,174 h236.0 a4,4 0 0 1 4,4 v8 a4,4 0 0 1 -4,4 h-236.0 z" fill="#848d97"/>
<text x="780.0" y="186.5" font-size="13.5" font-weight="400" fill="#1f2328">228 ms</text>
<line x1="532" y1="108" x2="532" y2="196" stroke="#d1d9e0"/>
<text x="24" y="246" font-size="15" font-weight="600" fill="#1f2328">pi -p: one prompt, 4 tool calls</text>
<text x="94" y="276.5" font-size="13.5" text-anchor="end" fill="#59636e">Pi-Bolt</text>
<path d="M104,264 h42.7 a4,4 0 0 1 4,4 v8 a4,4 0 0 1 -4,4 h-42.7 z" fill="#2a78d6"/>
<text x="158.7" y="276.5" font-size="13.5" font-weight="650" fill="#1f2328">79 ms</text>
<rect x="202.5" y="261.5" width="84.0" height="22" rx="11.0" fill="#ddeaf9"/><text x="209.5" y="276.5" font-size="12" font-weight="600" fill="#1f2328">2.2× faster</text>
<text x="94" y="306.5" font-size="13.5" text-anchor="end" fill="#59636e">Bun 1.4.2</text>
<path d="M104,294 h98.2 a4,4 0 0 1 4,4 v8 a4,4 0 0 1 -4,4 h-98.2 z" fill="#848d97"/>
<text x="214.2" y="306.5" font-size="13.5" font-weight="400" fill="#1f2328">172 ms</text>
<text x="94" y="336.5" font-size="13.5" text-anchor="end" fill="#59636e">Node 22</text>
<path d="M104,324 h236.0 a4,4 0 0 1 4,4 v8 a4,4 0 0 1 -4,4 h-236.0 z" fill="#848d97"/>
<text x="352.0" y="336.5" font-size="13.5" font-weight="400" fill="#1f2328">404 ms</text>
<line x1="104" y1="258" x2="104" y2="346" stroke="#d1d9e0"/>
<text x="452" y="246" font-size="15" font-weight="600" fill="#1f2328">Time per prompt, 4.2M-token session</text>
<text x="522" y="276.5" font-size="13.5" text-anchor="end" fill="#59636e">Pi-Bolt</text>
<path d="M532,264 h135.7 a4,4 0 0 1 4,4 v8 a4,4 0 0 1 -4,4 h-135.7 z" fill="#2a78d6"/>
<text x="679.7" y="276.5" font-size="13.5" font-weight="650" fill="#1f2328">562 ms</text>
<rect x="730.6" y="261.5" width="84.0" height="22" rx="11.0" fill="#ddeaf9"/><text x="737.6" y="276.5" font-size="12" font-weight="600" fill="#1f2328">1.3× faster</text>
<text x="522" y="306.5" font-size="13.5" text-anchor="end" fill="#59636e">Bun 1.4.2</text>
<path d="M532,294 h171.2 a4,4 0 0 1 4,4 v8 a4,4 0 0 1 -4,4 h-171.2 z" fill="#848d97"/>
<text x="715.2" y="306.5" font-size="13.5" font-weight="400" fill="#1f2328">704 ms</text>
<text x="522" y="336.5" font-size="13.5" text-anchor="end" fill="#59636e">Node 22</text>
<path d="M532,324 h236.0 a4,4 0 0 1 4,4 v8 a4,4 0 0 1 -4,4 h-236.0 z" fill="#848d97"/>
<text x="780.0" y="336.5" font-size="13.5" font-weight="400" fill="#1f2328">965 ms</text>
<line x1="532" y1="258" x2="532" y2="346" stroke="#d1d9e0"/>
</svg>
